<mxfile host="app.diagrams.net" modified="2023-12-13T15:53:48.912Z" agent="Mozilla/5.0 (Windows NT 10.0; Win64; x64) AppleWebKit/537.36 (KHTML, like Gecko) Chrome/120.0.0.0 Safari/537.36" etag="SHxc_a8Y5ZP8WJoTCgce" version="22.1.8" type="github">
  <diagram name="PÃ¡gina-1" id="LI9CimUNfzlcESdk0Z_N">
    <mxGraphModel dx="3217" dy="1303" grid="1" gridSize="10" guides="1" tooltips="1" connect="1" arrows="1" fold="1" page="1" pageScale="1" pageWidth="827" pageHeight="1169" math="0" shadow="0">
      <root>
        <mxCell id="0" />
        <mxCell id="1" parent="0" />
        <mxCell id="pEdZLLj2RjSo5PNS1kJ_-13" style="edgeStyle=orthogonalEdgeStyle;rounded=0;orthogonalLoop=1;jettySize=auto;html=1;exitX=1;exitY=0.5;exitDx=0;exitDy=0;" edge="1" parent="1" source="pEdZLLj2RjSo5PNS1kJ_-1" target="pEdZLLj2RjSo5PNS1kJ_-6">
          <mxGeometry relative="1" as="geometry" />
        </mxCell>
        <mxCell id="pEdZLLj2RjSo5PNS1kJ_-14" style="edgeStyle=orthogonalEdgeStyle;rounded=0;orthogonalLoop=1;jettySize=auto;html=1;exitX=0;exitY=0.5;exitDx=0;exitDy=0;entryX=0.5;entryY=0;entryDx=0;entryDy=0;" edge="1" parent="1" source="pEdZLLj2RjSo5PNS1kJ_-1" target="pEdZLLj2RjSo5PNS1kJ_-5">
          <mxGeometry relative="1" as="geometry" />
        </mxCell>
        <mxCell id="pEdZLLj2RjSo5PNS1kJ_-1" value="&lt;font style=&quot;font-size: 28px;&quot;&gt;1&lt;/font&gt;" style="ellipse;whiteSpace=wrap;html=1;aspect=fixed;" vertex="1" parent="1">
          <mxGeometry x="74" width="80" height="80" as="geometry" />
        </mxCell>
        <mxCell id="pEdZLLj2RjSo5PNS1kJ_-4" value="" style="shape=image;verticalLabelPosition=bottom;labelBackgroundColor=default;verticalAlign=top;aspect=fixed;imageAspect=0;image=data:image/png,iVBORw0KGgoAAAANSUhEUgAAAYQAAADvCAYAAADy+aP+AAAAAXNSR0IArs4c6QAAAARnQU1BAACxjwv8YQUAAAAJcEhZcwAADsMAAA7DAcdvqGQAACzjSURBVHhe7d0LfFTVvS/wn714bIG8IJMrD8XwUGgo1+RYNBIDUtEAxrSBUBpbmk9NBRSKRS+Hcvic3PTDodRSWwqtwcZ+Uqs0JZLeGEWQg0IAY7ENvRwiCIEYy8OSKHkAPurx3LXWXnvPnslrhuyZzOP39bM/7r327Jk9M2H991prz/pfdf311/83iIgo6n1O/5+IiKJcRLUQRo8ejffee09vERGRP9hCICIiJSJbCJcvX9YlRETkK7YQiIhIYQvBaa7lKMuZhEFndiDv5XJdaHcbVs1fhNTBerPbxxERBZfjLYRv/bgc5eW/wco7dAF5yEhfgFQcxobSAuTJJRKCwQNLsemF9XopQsGdupyIwoqDAeFbWFdejpSWvyKqe/Cbn0BBDxX96PiBuNT0Ovbr7f5QuGk7Koqm6a0+uvN+rM0Zgj//7DEsue8x/OIgcMv3lyJL7yai8OFYQPjWj+9E6y/nY+UbuiAKLZhZhopCYylLv02X2t2GkXF61S/TUPz7ChRPL8TG7duxXS0bUaj3+k4+z3bkDn0Tvyzeo8v6JuurqYhtPICy14zt42sOoBGjkPKAsW3Q573J/zMmouBxLCD87l++g3X79EaUeuZloxuo+owusMzH4ypQGGMHg1IW6cDxK6xy6Yf0ahC+/Ng9+GD9LMya9TjebBuDe/y6ypeV8gp8+f1KzPpGEZwJB2Nx7VCg8fB/WNsFz2YhWawNHTbWKCKisMG7jIKiHCvUmEEJDl0ELtWXGOMHpQ9hbbN+iA9O/jEPRa/KtT147dglDHL5WOlOL0bF9lxc+6fHMWtJqS402VsdtuX3xaI94busDXL8YBFuPFaCXxzsQKzrBr1HKsXSWSKQdXptIgolDAhRYNodXxTti+7oytp78aMVkZyzHpnNJWoMYdWaBox2xaC9+R29l4jCBQNCFNhTnCcq+Uq8d+uKLvrx+9JCaMB774v/Ne5QgcBgdCO9f87cJqJwwYAQNWRL4HG8OTTXq7LvWwthx+Em0UTIwqPmIPIDM3FLbBPqn9bbCgeVicKBYwFhyv/+DcrLy1H+8M0YKP67+eFo+z2COXBchuwR7oHjru826i97UPSNWah8/8t42KnbTp/eiCVVTarbSP0OIQd48b6N2KF3E1H44C+ViYhIYZcREREpERUQYq66Sq8B9w914UhKKraNHo/4AQN0aeDLAyFmoPt9ZWVcja0/GYyfLB/oUU5E1FcR1WVULyrou95tQNbgWMyLScAjfz+NrEGxeDBhaMDLv9z4tj4L55X98HNY8qPPcNv/ugozbr0KT/zuM6RPugpfnX6VKr/4oX4gEVEfRFRA+Ncbv4j8q69R67mnG/G3f3yi1r8bn6gqbSlQ5b9ubVHrgfDVaUblL/3Lzz/D3z9Qq1Z5wb99ZhQQEfVBxA0qnzp1Sm8FV25uLiorK/UWEVH44aAyEREpDAhERKQwIBARkcKAQEREioMBIREZ+QuxcKFeZo/X5RQOZHKf0JpmQ2N6TqKgcSwgJE65G9c3bcPmzZvFshdnR05F/pREvZfoCjA9J1FQBey20/GzF2Iq9mLzS8d0SeBF7W2nruUoy4nDq6VHMbHQyFiGi4exofwJK3dzRvqvsCxloN5qQnVpEZ4Ra57lNmd26LzQctK+TLRWuZP5yNbE9NYSFNS+AdxUjIrUNmzYDRTmTDLyLljH3oZV8xcAu2sQn6PPy/bavZFJd+7FDixZZmZkuwuPviDCQdVj+KnHbKpE5ASOIUSMUchWFbfMxLYDjYMn4b6b9C5RaS9LaRYVsZHic0O9C9nzlyND7Npf+5Aqk2k/3ZncxKIqdB+J11qmApI4ruowLo3ItKUGHYjUHPO8ZMa4UZjuU9cU03MSBVtgAsKEbEwd2YH6g8FrHZCoPPeZV/HlOCIq+KQhRsW7YPQosc99Vb6/tkYEjLHI9Dmfc28u41CVfv7m13H84kDED1E7FPd5vYGapssYFG9Pr9m7ntNzEpFTnA8IrgzkZw7H2Zot2O9HvmDqqyYcsU2nJBP+qy4d3IaRcUDyHUauBmMxu28ccrEBNdZ3/QbWlhdghUNTOzE9J1HwOBsQZDDITQGObEP1UV1GIaFxn+4Kshb/EvwHH9NzEgWbcwHBFgy2HAjcRG/kL6ObJvmOYizQJV051XoZg0bdrsYVOnN3AclBaJkRLhh8S89JRE5xLCCMn5yCGPH/mIlz3L9FWJiPDMf6qelKyYFjNZBsdRmJRQ8qm/bXPoNDmIRl5v6Z8/WecqzY12R1OS2Lr1ED0EHB9JxEQcXZTh3C2U6JKNwF5i4jIiIKOwwIESCYKUKdLCei0MKAEAEO3PQlVdnKSjY/wYXZDUexu6Mt5MuJKLT8j7i4uP+j18NeQkICLly4oLeCa8KECTh6tL/utb0KJaPG4I7Bsch/5wSaPv4Ib16+GPLlbf/1qSgjolDBQWUiIlLYZURERAoDAhERKQwIRESkcAwhaGReAXNSOTk7aNdzCclcA9kjut+v8g/cMUpv9PA4IiI/ORcQJmRjYeZwvSGcDm5yHCk8BpU7J5yx6zkgGEEF+5ybTTQkyMxo309FbKM9GQ4RBZtzXUZHq3X6TLlsQ30cU2heCTltdbczkbqGI8lrmutwd+PqImx6ADjeqAuIqN8EaAyhBS1tejWqyCt4PTmcWPxKWi/TYFrHdjMz6ZA4I0Wln6YVVaCiaBoKN23H9u3GsvG7emd/Ei2DAtcBLPnmc3hPF3VFnv/27RUonq4LiCggAhQQxmPcyA68ezyapsGW+YOzkGSlodyB8ymL8LiZxrI3zU+gwExBqYtMcsppFSjU2IFMlakDhzUjae8G3boC9zQ/jlmzZuHxP13CmOnFmKb39ZvXnsMqdhERhQxHA0LilHw97fVUDD9dF10Z01y340YcRqnKUiaV44X6y0ge7Xul3R0z73HeviaxJZPUy4AjFn/yHp+qRF7xHrW6Z99buBQ3BD5lJhaBo0K3KjyWTYVqt3H13nm/ky2QPcV5IpDloehVXUBEAeFoQGg5sMUaR9jWmoaF+RmImlEE2Z0jk81b3T5lWJYyUO8MY68WIU+0KmTLwmNZUqp2G5V15/1Lf612E1EYCVCXkQgOx99FR0xC9AQE6eJhbDCv3q/kKj4UhUALgYiCI2ABQWVQO30Cwb3xtB+9fRSNooVQ6M9AcjgIgRYCB5WJgsOx3yHI8YM5E2USTS0qf4dg//GZQSa3V78Z8PhBmcn9ewM5cNy5i0mOFxThGb1lPAc8y3wgK9QVrp1WJa6u+h8bgp2zlkKX9JO78OgLnp+X4vV7BHX+twJvruc4AlEg8ZfKRESkBKzLiIiIwgsDQoSLGXiVXgOyMq7G1p8Mxk+WD/QoJyKSGBAi3NM/HKQqfxkMZk65Gst+fBkH//NTq5yIyMQUmpHuv4EffPcLSB0/AKs3fohzLZ/hrVP/ZZVXvPKJfiARRTsOKjuEA9pEFO7YZURERAoDAhERKQwIRESkMCAQEZESgICQiIx8OQV2PjJcuohCnkzd6VdCnyBSWdVeWI9HH9AFRBQQjgeExCl3I6XtLM7qbaIrNxYFz65HARrADJtEgefsbaeuDOTnXo93K+uQkJuGC5VbgpokJ2pvO5XpN3Pi8GrpUUw0J9eTU3GXP4H96gHek+e5J83relI94cwOPXW3nLAvE622pP+yNTG9tQQFMhmQnHAvtQ0bdgOFOZOMFJ/WsTKL3AJgdw3ic8xJ7Lwm7OuBbBlknyvGT582JsFD1WNiXe8kIsc52EJIRMaMFODIK9GVKS1kyNSasuKWeRh2qKm47zPTd4pKe1lKs5VpbUO9C9nzlyND7DKzsVWfAS5Z6T/9zOMgEwOpgCSOkylAR2RildVdOBCpOeZ5leDQxVGY7mPX1PE1MhjoDSIKOOcCwoR0pKAerxyIpjzKoaVxn3kVX44jooJPGmJUvAtGjxL73Ffl+2trRMAYi0zHxnjkNN76+Ztfx/GLAxE/RO1Q3Of1BmqaLmNQ/A2qnIhCi0MBYTyyM2NQv2s/GA76SxOOyLwL2jMvFxhdOrgNI+OA5DvcqT0rvHI29NnFBtRYrcI3sLZc54AgorDiTECYMA7DEYOUXHl3kU6yb27PHq8fRP1JJuqxuoPU4h4TICKSnAkIR6ut5PrGshdn0YH6SrEe5Kxp5M3opkm+oxgLdElXTrVexqBRt6txhc7cXUByEDp7hLFORJHFwUFlClVy4FgNJFtdRmLRg8qm/bXP4BAmYZm5f+Z8vaccK/Y1WV1Oy+Jr1AB0UDywVP3+YJNOs5mcI9f5ewSiQOFspw7hbKdEFO7YQiAiIoUBIQLEDxig14D7h7pwJCUV20aPD/lyIgotDAgR4MBNX1KVraxk8xNcmN1wFLs72kK+nIhCC8cQHNKfr/2QaxgeTrpWrc8SlW/Txx+p9XApJ6LQwIBAREQKu4yIiEhhQCAiIoUBgYiIFI4hBI3MK2BOKidnB+VcQkQUWpwLCCo5Tgpi9KZyem9Q5zIKj0HlzglniIhCgbNdRh312Gaf5I4T2xERhQ2OIThKXv3ryeHE4m/SejmTqHmsXB43M54pMh2le5978jm3aUUV2L69AsXTdQERkR8YEBwjK+wsJFlpKHfgfMoir0q9B67lKLSluZSLPcnMgpmLkNq2Q+8rwaG4LL8DDhFRT5wNCDEpmKMS5MglG1GVGsd1O27EYZSqLGVSOV6ov4zk0Z2v5Ls3ChO7DCDzMXFEE6qtPMdvYO2hpk75C/YU52HWrDwUvaoLiIj8ELC7jBKn5GPOxA7s3VyNYI0k9Oug8k3FqLhjlN6wOSOu6j0S1vcwqGx/jouHsaH8CeyX66L1UJYzCYPUDhv7Y4iI+ihwt52qu44SUBdNASG1zYcK2re7jBbMLEN2nK7wVUCIw6ul7kT5REROC9AYQiIyZqQg5vSJoAWDfvf2UTQOnoRCh/r1ZUpLS/PrOH5xFLK7GEi246AyEfWFYy0Eo4vI/SuEjiPbsOVAi94Kjv7/HYL9x2cGmdxeDQ532aXk/oGavMNoWcpAXS41odqjRSAHrRchdbDeFC7Vl6DAGrMwAsKKW4E313McgYj8x18qExGRwttOiYhIYUAgIiKFAYGIiBQGBCIiUhgQHCIHtImIwhkDAhERKQwIRESkMCAQEZHCgECOSHvqFIp3/xWzZ+gCIgo7jgeE8bPN6a/FMjuqJsCmCHPj6iJsemG9XpYiS5cTRSoHp65IREb+HKS0BTePsl1/Tl3BaTMizANLsSkHePG+jdghNrM2rMe9Qw/hF998DseNRxBFHOdaCBPS+zUYRLXFr6D4qXUYtuavKN4tu25O4ZE1hXqnIPdXPodhM57DI3q/fLxbIWZX6nKvfeo55bF6W/Iosz/n7leQph5htw4F1n6xeDyX3OfZzSS7njqdu+14j30BMxYFd45C+8GXVTCQdvzfQ2iPHYvb79QFRBHIsYAwfvRwdLQmItvKmLYQ2RP0Tgq8MfOwKGkHir4yGkXraoH0JZ79+XHpWLTShRq9/8KYLGt/2lOrMLllq3HsV9biYOI8q+I9t7ceF+JSkGZ7rmFJsbjw1ms4Jzd23Y+fm8+p9trJQDMP8bVr3c8NcR4ewagnImDMTcLBdfJYY/n56lK9L5BuwNDYDhw/0KC378Kj309FLGIwlD83oQjmUEBIRGIcEDMxASc2b8ZmudScxfDMfGS49EMosNpqUfLgSmN912s40RYL11hj09AuKta7USdXPfavw6QxDagyj0UpXtrVgIQv3mlcyYsKv+ZkLMZNNa/MjcfX+FIxL56HyXH2x4rnflIGo7QuWhLdsb+2H6YXo2L7dmz3Xjb581yipfCsHD/IAqoew4uNwNBhHh8qUURxdFD5bI0tO9rRWtR3xCAhUW9T0MWPsFV+bfWo26XXZcWcOxplT4rVGdchXlR8ObZumeK5npVe3SFbgFichuSTdUZg8UVbs9GSuCIrUaZaO6v0uXXVJdWNV4uQN2sWZnkvS3xtYcTglu8vwtDXHsOS+x7DT58ei2uHAu+fM1sNRJHHoYDQgpY28U9oCGv/UNJ6xtfKT7QQdJeMteTe767In6xDo+42Sksdi8ZDZmvCB3Euj/EHjHUhQa/6xOySEktJbZIIXD4GhT61EN7B++2iTXWwRAQCXaS7kd7nfQMUwRxrIRw7dRYxE9Nh3WgqB5ljzuLEUb1NQTNszRLVVXNYtgB6o7qPRAuhx379lTh8UnYxrcOkxFrs9OV5JRlIROsj0xoILsTsGWNxoXarrYXh7tqSg9U5Y4z1rpw7c16v+aBPLYQGvH6sA7GT70eBHkS+cfUUJLeL8teMbaJI5GjGNM80mmexN4gJ9qWove1U3onj0c0jr/j1eIEk989oRon9qt+DHPxdJYKI3hQu1K71HMCVdxOtTAe8ymUlvig9Vm+Z7K8v7ySa504renIriqzxCsF+7mJfFeYh87x+jU7vS46D3IyXrK6vwJK/Q/jeZP333M5bTinyMYWmQ/o9IPRY4RMR9c7RQWUiIgpfDAhERKSwy8gh/dplRETkALYQiIhIYUAgIiKFAYGIiBQGBCIiUhgQiIhIYUAgIiLFodtOdbY0c9YKSwfqK7dgf7PeDDDedhqOjGkzXLv07KtBZk5P0VglZzTVhURRyqEWQgv2b9F5EGz5EGRAaAlSMCDyj5HroAANaNQlRNEuYF1GKoPakdqgTm4X3bzSYNqmiVYpL+2zmaq0l+79ZtpK9Th9fMFivVM/r9yWjzP2e6a9tB/nmbNAHisfa0+j6fm6xbuNSfWS55r7g5Mm88bV96tcB6vW/F2XEFFgAoIrA2kjz6LuQIsuoMDSs5VaaTDlYpvt1AcJ6ausFJwlte1IFkHDnsdAVthyFlK5v+pkLCbn6QCz+BUsSj9v5VNQOQs88iaLx67MQrNKg7kWB9vc02HXPWiWAY3Pm+cdnDSZx9cUs4uIyEtAAsL4ySkAWwfBo1NVutNgXgFbCk4jj7JXYpuTW62KWmZQQ+J1ar9KmPO8O/icW73DSqZjanzenLK6FHVvtSMhyTMj25Uq3NRFApztFSierh9ARH5xPiCo1kEH3j3O1kGwDBuR1MdUlXAnzZdUljLPFoZHlrQn79YZ1QoxLNGzu6fYnvsgwEqXdJEAZ1Yeil7VDyAivzgeEGTrIOZ0XdDuLCI/M4kFgL27x1iCk8SGLQQiZzkbEHTroP4gO4uCSuU8TsfXexqM1V08KoPZynT4lde4W0YXUPJcH/Mcd6kU50RjMjm1pxSeXWMLgchZDgaERGTMYOugf6xE2Ve2ojV9la3rxl1Jn1u9CQeRjkWqPAvNz9figt7XV+dW36yT35uvKxaPQeXe1T24FY1j5lnHB+MuIzywFJteWC+WLNXFlZwj19fj0QeM3UTRiPkQHMIfphFRuAvIXUZERBR+GBCIiEhhQCAiIoUBgYiIFAYEIiJSGBCIiEhhQCAiIoUBgYiIFAaEiHIbVs0vQ0WhXmbO1+WBZ+ZEcOdR8INrOcqCfL6h43P4XeUI7LySzy3SzPgC6iq/AP5YvP84GhDGz16IhQvdS/YEvYOCIiN9AVJxGBtKC5Anl5fL9R4KVT96ahjSW5pxjz196J33Y62aViMSp9O4C4/K9/Xs/bhRl1h2fYidLUPwg6f+SRdQsDkWEBKn5GMq9nqk0ByemY3xej8F3uj4gbjU9Dr26+1gknMayZlOrygvcvMTKIjGALY4Bnlj2lHx4Ce6QBqLggfG4vjPHsOS+8RS1YTknCIU3Kl3hzM1f9QEvH+wQxd09oMHz6E20cUWUz9xbC4j2TpIa92GLWaWNFcG8nMTULe5OmiJcqJ7LiPZXbQINzaVoKD2DV3mtmBmGbJH6A1cxqGqh7BWT0Io901vLUEpFmBZykBV1rivACveVqu9kOkxzRwI7Ti4zr+pr+3ndane69xvKkbF6KPY0JppnVenx/TgC+s3IrFlI97Dt3HDLbGqrK16Kc7/Vq0C316Ocdnu7A32fVev/Hdci9+iJXEpRt5glHkci3uQ9Py9iNNbhnac3/ivaNsr1z33f/TnjfjbuuN6S5JdRcOQtOuMZ+ugE3lFnQVUPeZIhrdpRRV4GL/ETtcK5I42yk7+cRaW/tpY98l3N2L714DKWUvF34yvxPt49n+i+pvPAauL8L3xDfiFWLd/IhYRKBtmfIof5X4I77csz3/FrcCb6zmrbSA41kI4duosYibO0d1E5synJ5g1LeDm43E1ZrAIqYOBQSmL9BjCr7DKZTwiI/1XyI5zdyVtqAdSc4pF9e8mj1sWX6P3X0Zy6nJk6H09kzOtyhwIW68oWf0zLxvnVH1GF3gbkWWdV96+JnGeMz3Ouzefv2UpbkiswYm5S/HOn9sRN7UAV6s9osL+Ur0qV0t1I+Kyl+MLap9BHisDSudjZbARlf07LxrHbvwLPhJlbdVmMLgRcb+5F9eIIGA8/4v4WDxX0rflPm3GNUiJa0fdlbSo+mjQrStwT/Pjarrwx/90CWOmF2Oa3hc4/4GfdhcAvD35MU7GDcQ0W9Y9Cg7nxhCOVmPzZvGvIVOOH8zB9U3bsPklhoPAK8cKVdGX4NBF4wpaVZ6lZgtgPu4TV9eNh56wupL21z4jHjsKE2/SBdJFETB0l83+hgZcGhwHfQHZv2znhbePiqDjwkgd6HzS/he889hOtfqP2hP4KHYIBqitnTivy5Xf1qMNQ/FPU/W2JCp886re89h7ECNaDW3/qY/f+zra24Frhule8am3IxZ/wXtWi2AnLsiA8qV79LYwdgBi2z5Fg97sTtaGLCS3H0K1k/mfT1Uir3iPWt2z7y1cihsCZ5KaOuVTnG/7PLrKtLqnOI85LwLIuYAwIVsEgjRcqJRjCHvRIVoLC/MzRFuB+t9ltH6gV7vhMfag+vSL8IzeDGcfHX8d/9Dr2FuGv819Ah/qTdmlNO55c/Hu/ulJIz4WAcCq4GUAiG1He60OADcMwedj/xk3WM+90eqyMj0woveB0xtXF+He5Ca86OuVdUAVYqOZle5rY8T2GOSa25uczl/xGU63AK4Rjt7zQj5w6BNPREbqcHQceUUnxzmGahEUzsakIJ13GoWAgYgfoleVGxA/WK9GKTlGMPKGRpw2u4zmvihaCL46jk9kgL3hXqPCX/rPwJ9/q7uLNNkysZ5bL7YWydNn7APJnclg8L3J4ml/thE7dFn/KsVSMyvdH0+K7ZOoNLeX+D6S4JvPYaS4kmw+85nepmBxNATHxNvaAxPGQYQIXGCu/X5WjiNnZIpK95hARnomki8exgs+DRpHsPYP8KleVWMCer1XUwuQ6BFMlnoOGMvuJ9FCuHZlpxsr3Ro+RXvcgC67atzBoBhlr+lCb3JgNyBX56FgAJLiPsL5LvrT5KAy82YHjkMBoQX7t4gWwcip7t8hZMagvnIL02mGADlwW902Ccv0D9aWpTSjutw9ptAni1/RqS/lnUaxmLxSrv8Vs30aEDQHxI07jcwB8bL02/T+wPnHuhpVaZvdOoktf/G9hbC3DC3vJGOkPtZcrrMCwE6c1wPJ9v0eg8q7PkZ9WyzuWeP9T/AuZE+OEf+PwS3fd/8WodN9+7/+f+IaXRh6XRAGhJ0wFgXPGu/le/L9xabie939HmHxNRjTdhl7/LhbjZzBFJoOYQrNKCJaCNctHYIW23iEUTYO7dZtpz6Qt1fOBSq+0oEf6CLfTUPx71fgy+9XBqDLpj/5ejsuBQJHbYj8JQeN9arp6vRxoux9fOJrMJCe7EDFyVjk+fnLXKPbJBKDQTe/3KagYQvBIWwhRBd5h5L5gzWDHFOwtRh8Frwr4piBV6HjsvHPPSvjanwn5xo0nfsMPyz50CrvV3Iuo8XAL7v4QRoFBwOCQxgQKNRtXT8YD/zbJUxJG4CZU67Guqc/QkbqAOTd80+qPCSCAvUrdhkRRYmKnZ/g6R8Owne+eo0KBudaPkPFrk+sciK2EBzC1gkRhTu2EIiISGFAICIihQGBiIgUBgQiIlIcDQgeKTQ502n0mPEcHtn9CtL0JvUzfh90hRwLCCqFZlw9tukUmnvbUjBnNhNoEhGFC4duOx2P7IVTgZrNqD6qi5hCM2j677Xt6TPt7Kk0CzG7chUmm1OJntyKogdXqtVha/6Kr6Merenp4jkaUPU8kDN3rPsxcuK81DqUnM/ConQjn8CF2rX4+epgTdfg9f7aalGSez/O6ffk2uXOIS3fy6KkHfq9ufcfTj2FHJk+wP6ZyPc1oxkl4tivr0xHgtxt+1x6+syMc0rD4XXNyDSPtc7Ll++DqHsOdhl5TXXd3CJKYpDoT3YrCjM6fea6WlyQFbpKpSkXd+WT9pSo2FpEhabK1+Jg4jw8ssY9ZXNCegqa14nytrHIkZWkfK4xae7ujjHzjIpWvw7Sl/g4k2pfGZVrvAhAxrmLRVW6vkueewqZ543jq07GYnLeOr1HiEvHopUu1Oj3dWFMlvW+evvM5MyhOeaxMnWpeK57VFL63r8Pop44FBCO4cTpGKRMdncRjZ89FcP1OkWrdZg0RlRM1tVtqaiYGpDwxTsxTJfg5A6rsmrc1UWFK69+zeN3vYYTbbFw+ZLvcXoxKsyMXvbFx/wBw9ZkIVm89h/60hoRV/Zma6buUAOQeJ37faur9rtRJ1c93pcPn5n9WBEEDp8E4kdEYl4ECjbHWgjHXvLMhzDulNgWbYQW5kOIXjOuQ7y8mlX5EvQiu4T6yKfK79Ui5JkZveyLj7ODDkuKBVr+5leLwFvjIbNSF56827OF0VaPOuuqXVT6ubr7KUCfGZEvHOwykmkzjQFluVS3JCKm4wKYMC3a2bsu9OJn14u31jM+VOp9bCGcO9+u1/qD858ZkS8cDAg2akD5ery7az8DQjTY9Te0iqvaSaof20Z1hYir3adsfed9MGzNEkyOa8BhX6aJ7mML4dzeelwYMw8F3u/JxmqpLH7FGvTuMyc+s+6+D6JeOBYQ5G2n1m8Q1N1FTJ8ZPVai7PkGNYhqdHOYKTRlV4gxKGp1f4jFc4C0F3LwVR+3KP28uHI2+84DbNf9+Pm6WsRb70kslc/pfnzxvp6UA9yrjPIZzaiqdapF4cBn1u33QdQzznbqkGh97YAyb89kdwlRUASmy4iIiMIOAwIRESkMCBS6vG/VJKKAYkAgIiKFAYGIiBQGBCIiUhgQiIhIYUAgIiKFAYEoCqU9xV8wU2d+BwRziorsCbrAxmP6ioXZYL40CmlMNUmhQP4i35oWpX/5ERASkZG/EHfjXZzVJR4mZGPOxA7sNVNonh6OqcyrTBSS6h6Us6gycQ558nkuI3n1n/7BFlQf7SJdpgoWc3B90zZsOaDnNzVnPK0M3iR3nMuov3ilfFTTN8tJ6PqYalJewavMYHWYZKaGtNJFGtTzWTONmq8rhW6qSSN16CbUJK3S7xlofN79GcnuHJlp7Q9YYr03+34zm5t5/u60osbnOe4te5pRrzL1merPw+Pz0jz2C/b0nZ3mlpLnkYVm22fm+X14n7cvCrFxey7wx1lY+mtd5Ct5frbcEe7PpfN5mp+x+zPp/u/syr8PQZ5Td2lgvT9rSxffS5D43EJoOSCDgd7oJBEJMR1497g52bUIGrkpiBH/JbCJEOF0MLBSPsrFvz/mHlNNqmQx8h+zfF57ukhB/GMzZkA1XrekNgk5Hk1vcWyIpppMSF9lveciNTOpZ9eV3G+mDi2pbUeyqDyM9yU/b3tqz61oFY81pukuRd1b7V7Z1cbCFdeOE3t1BSVncZXHqffuTVRsooJqFZWd+dyNY7zTd/ZAnOPXbd+HXPwLBn2ggkGSCOju17YqZZ/08HcmXNn3odnTwIrvOiF9nvFdm9+FKFMBSB0vl/4JBpLDg8pGt9JC3YLYexqIGcKIENEWz1M5CtwpH69Aj6km5dWYWVF7potMSx0r9rn/8ZxbvUP8Q05BmjVQGqhUk/IqtovkO78vxjT9iF7Z3jOerEMjkjDMPsArKwj9marcDHEu4zOZcSfGwZ7acyV2ygoq1QiinT6DxWlItqUp7YmZNnSnVYkb02h7Bpje9EceBlEpzxgrrrw39Smgd/d3plzh96HYju3yuw4hDgaEGKTkzkHCIZ0x7WgiEuOAjg+YIieSDRuRJP7gm/s031CPqSbFFbw9IY7s+zYq0kIME9ca7jn/5dJVN1AglGJpV8l3vlGEPfoR/vPMFX3hrdfcn4G6ktSBbawLCbYcEXKxd9EYlVksxk21BU3759ubvqQNleepWjv63PwYKC3cZAbWXMhetDFfM7c3im+6N7IV5GMmvW5193dmuPLvI7w4FBBacKFDVP5HtnmMK8hupAuMBxHt3Jnzeq1/yL5co5ltLsHo9nGghdBJO5pF48gnHt0LerG10GQry7iqNxL2+5RhzuTVOlMB3x8yoOtzqmoRFaWPQaF0iRlYKyEuznHyj+b2UhF+e9OA5ja92h96+T7CiWMB4VhTB2Im3o0Ml1GSOCUNwzvexTFmTYtssgksrpC+3kM/c0BSTer+cu++d79ccapJZ1sIaU+Jlo1H0v0e+PB5G49xYdjiNMTXbvW5P9roCrH3na/DPeL7ahRXxNbVsdlVIrtpKntukQUvL7UvfwvuFpgc+DYH8/vMl++jNw3N4nO3d3X2H98DwoRs/fuCqRguNodnGr83MH+PIAedtx0BUnKN8jmj3sW2LcypHPnkAK0xkGY2mYute/sDmWpS9pffbAwkW68rFr/u5+7HVJNj3CkycxLFFaZHN1lPuvq8T3nlfpb92OJzmZvkHkzWZGWojlF3t8iBVHm8/r5kV4hH2lBjsNQaGBZX/1UnzWPk3WFb0ah3SdZz60UN+Pv8vvqmq78F92C45/csB3irZDPEEb58H70Qn/sfxD+TySvN4/twkdNHTKHpkOi+7ZT8oW7NtG69JQodDt9lRERE4YoBgYiIFAYEoiCT/d3sLqJQxIBAREQKAwIRESkMCEREpDAgEBGRwoBAREQKAwKFPaaDJHKG3wGhpxSa0vjZcuqKfGtOIyLynwxyPuchIHKIHwGhlxSaMimOCBTjWuvRoUuIgoHpIImc4VAKTdkyyEfiwS3Yj+CnzjRxLqN+0FOKQCG600H6z/s1LfZz7/EzWwK8dR6T08eqY6owT83saZ67fP6e0ndSdPO5hdBzCk3g2EvBDwAUIuwpAtfJ2U2XePTnMx2k79SvmMVrydk4ZUVvvrY7GPT0mUmxmPxFEejkZyLerwzG6jO3ZfDqLX0nRS8OKlPf2VME7noNJ9o8s39dafrBsE0HOb0YFV0l0NnkwJiADykb3fkLGlBjPc6mt/SdFLUYECgg7Plooy0dJF4tQl5XCXSWdFE5+ysgKRu9AjhFLQYECgif89tGYDrIgLYQJMdTNvqRvpMiGgMCOWrYmiWYHOdjxR2p6SAdaCHI1+uye8uJlI02fqXvpIjne8Y0mUIzUybP9HRW320k70KaMzFGl5o6UB/Eu414l1E/kHfrzLX3N3je7WPeZeS+U8ib5x0zkvddL8adN8BB2x1AUtd35Nhe3+suI/vdT5I8N/edNluBue67jDo/dxd3MQWUcUfV5Di92cNdRpLxmRnHuHaJ9Qb53l2oEed8Tr4XnaGt0/uSrY0gpbmk0McUmg6J6oDgcfsmhTIVEJi+k7rBLiMiIlIYEIiISGGXkUOitsuIiCIGWwhERKQwIEQAtg6IyAkMCEREpDAgEBGRwoBAREQKAwIRESl+B4TuU2gaGdXkPrXMHq/LKRwsmFmGsvTb9Bb1nZxG4pQtTwFR6PMjIPScQjNxyt24vmkbNm/eLJa9ODtyKvKnJOq9REQU6hxLoelNJtufir3Y/NIxXRJ4UfvjMNdylOXE4dXSo5hYmGVMenbxMDaUP4H96gFARvqvsCxloN5qQnVpEZ4Ra57lNmd2IO/lcrEyH48XZqK16iGs1ZMUytbE9NYSFNS+AdxUjIrUNmzYLa6JcyZhkHyAdextWDV/AbC7BvE5+rxsr+0br0nebJPMdZqXR01mZ0zoVqePkxO9HU41J7Frd0+QZz22DpPMieK8JnrznAjOPrmdfO4lwJM74FppTjLn3m+fNM/Oe3I9olDjcwuhtxSa1N9GIVtV3AXIK92BxsGTcN9NepeotJelNIuKWO4rwIZ6F7LnL0eG2LW/9iFVVn0GuFRfotbVoip0H4nXWqYCkjiu6jAujcjEKpfeh4FIzTHPqwSHLo7CdJ+7pnQwaNlqm/vfvxlHZYIbM11k1clYTM5zZxaTGdFyVB5l+bxb1bTS1nTZi18RwcCdQrOkNgk5HvkQxHOtNI9di4NtY5Gpp6Q2kv7LMmMWUvPcGQwo1AVmUHlCNqaO7ED9weC1DkhUPvvMq/hyHBEVfNIQo+JdMHqU2Oe+Kt9fWyMChqjArEq7ry7jUJV+/ubXcfziQMQPUTsU93m9gZqmyxgUf4Mq79XieSq3QlVfZua0pYuUyXa8k+Y0Pm9OqS2zs7kzvansbM+7g0+ndJ6C+1id/zmJaccovDkfEFwZyM8cjrM1TLofXE048rZeFZ55ucDo0sFtGBknrpTvKENFobmY3TcOudiAGuu7fgNrywuwwnYuV0plOGtr7tO02h4pN2UGNI9puj0T+cgreyN4FGJYotG6MNNUFnvlHyCKRM4GBBkMclOAI9vYvRRiGvfpriBrcY8JhKpzZ87rtf5h7+4xFs8EPUSRxrmAYAsGWw606ELqf0Y3TfIdxVigS7pyqvUyBo26XY0rdObuApKD0NkjjPWA8yVdpNUFtA4FtuxofWN0ASXPfQVpusR/pTgn/hkkp9rHLIhCm+8BQabQVL8xmAqZSHN4pvF7A/P3COMnp0Am0IyZOMf9W4SF+chwrJ+arpQcOFYDyVaXkVj0oLJpf+0zOIRJWGbunzlf7ynHin1NVpfTsvgaNQAdHCtR9pWtaE1fZeu6cVfS51ZvwkGkY5Eqz0Lz87W4oPf11bnVNxsDydbrisXXJPta3YNb0ThmnnX8Iw7lQSYKFOZDcAhzEhBRuAvMXUZERBR2GBAiQPyAAXoNuH+oC0dSUrFt9PiQLyei0MKAEAEO3PQlVdnKSjY/wYXZDUexu6Mt5MuJKLRwDMEh/fnaD7mG4eGka9X6LFH5Nn38kVoPl3IiCg0RFRCIiOjKscuIiIgUBgQiIlIYEIiISGFAICIixe9BZZkoZ87EGJz1TpAjp7bIlJNaaKeDmxyHiIj6xo+AIFNozsH1TfXomJjSS8Y087Gc6I6IKFz43GUkcyYnHNrsYwXfgpY2vUpERGHB54DgXwrN8Rg3sgPvHmfrgIgoPAD/H5C7j39n2oGtAAAAAElFTkSuQmCC;" vertex="1" parent="1">
          <mxGeometry x="-90" y="630.5" width="729.73" height="449.5" as="geometry" />
        </mxCell>
        <mxCell id="pEdZLLj2RjSo5PNS1kJ_-11" style="edgeStyle=orthogonalEdgeStyle;rounded=0;orthogonalLoop=1;jettySize=auto;html=1;exitX=1;exitY=0.5;exitDx=0;exitDy=0;" edge="1" parent="1" source="pEdZLLj2RjSo5PNS1kJ_-5" target="pEdZLLj2RjSo5PNS1kJ_-10">
          <mxGeometry relative="1" as="geometry" />
        </mxCell>
        <mxCell id="pEdZLLj2RjSo5PNS1kJ_-12" style="edgeStyle=orthogonalEdgeStyle;rounded=0;orthogonalLoop=1;jettySize=auto;html=1;exitX=0;exitY=0.5;exitDx=0;exitDy=0;" edge="1" parent="1" source="pEdZLLj2RjSo5PNS1kJ_-5" target="pEdZLLj2RjSo5PNS1kJ_-9">
          <mxGeometry relative="1" as="geometry" />
        </mxCell>
        <mxCell id="pEdZLLj2RjSo5PNS1kJ_-5" value="&lt;font style=&quot;font-size: 28px;&quot;&gt;3&lt;/font&gt;" style="ellipse;whiteSpace=wrap;html=1;aspect=fixed;" vertex="1" parent="1">
          <mxGeometry x="-20" y="110" width="80" height="80" as="geometry" />
        </mxCell>
        <mxCell id="pEdZLLj2RjSo5PNS1kJ_-44" style="edgeStyle=orthogonalEdgeStyle;rounded=0;orthogonalLoop=1;jettySize=auto;html=1;exitX=1;exitY=0.5;exitDx=0;exitDy=0;entryX=0.5;entryY=0;entryDx=0;entryDy=0;" edge="1" parent="1" source="pEdZLLj2RjSo5PNS1kJ_-6" target="pEdZLLj2RjSo5PNS1kJ_-42">
          <mxGeometry relative="1" as="geometry" />
        </mxCell>
        <mxCell id="pEdZLLj2RjSo5PNS1kJ_-6" value="&lt;font style=&quot;font-size: 28px;&quot;&gt;2&lt;/font&gt;" style="ellipse;whiteSpace=wrap;html=1;aspect=fixed;" vertex="1" parent="1">
          <mxGeometry x="190" y="110" width="80" height="80" as="geometry" />
        </mxCell>
        <mxCell id="pEdZLLj2RjSo5PNS1kJ_-16" style="edgeStyle=orthogonalEdgeStyle;rounded=0;orthogonalLoop=1;jettySize=auto;html=1;exitX=0;exitY=0.5;exitDx=0;exitDy=0;entryX=0.5;entryY=0;entryDx=0;entryDy=0;" edge="1" parent="1" source="pEdZLLj2RjSo5PNS1kJ_-9" target="pEdZLLj2RjSo5PNS1kJ_-15">
          <mxGeometry relative="1" as="geometry" />
        </mxCell>
        <mxCell id="pEdZLLj2RjSo5PNS1kJ_-9" value="&lt;font style=&quot;font-size: 28px;&quot;&gt;5&lt;/font&gt;" style="ellipse;whiteSpace=wrap;html=1;aspect=fixed;" vertex="1" parent="1">
          <mxGeometry x="-122" y="252" width="80" height="80" as="geometry" />
        </mxCell>
        <mxCell id="pEdZLLj2RjSo5PNS1kJ_-46" style="edgeStyle=orthogonalEdgeStyle;rounded=0;orthogonalLoop=1;jettySize=auto;html=1;exitX=0.5;exitY=1;exitDx=0;exitDy=0;entryX=0.5;entryY=0;entryDx=0;entryDy=0;" edge="1" parent="1" source="pEdZLLj2RjSo5PNS1kJ_-10" target="pEdZLLj2RjSo5PNS1kJ_-45">
          <mxGeometry relative="1" as="geometry" />
        </mxCell>
        <mxCell id="pEdZLLj2RjSo5PNS1kJ_-10" value="&lt;font style=&quot;font-size: 28px;&quot;&gt;4&lt;/font&gt;" style="ellipse;whiteSpace=wrap;html=1;aspect=fixed;" vertex="1" parent="1">
          <mxGeometry x="74" y="252" width="80" height="80" as="geometry" />
        </mxCell>
        <mxCell id="pEdZLLj2RjSo5PNS1kJ_-18" style="edgeStyle=orthogonalEdgeStyle;rounded=0;orthogonalLoop=1;jettySize=auto;html=1;exitX=0;exitY=0.5;exitDx=0;exitDy=0;entryX=0.5;entryY=0;entryDx=0;entryDy=0;" edge="1" parent="1" source="pEdZLLj2RjSo5PNS1kJ_-15" target="pEdZLLj2RjSo5PNS1kJ_-17">
          <mxGeometry relative="1" as="geometry" />
        </mxCell>
        <mxCell id="pEdZLLj2RjSo5PNS1kJ_-15" value="&lt;font style=&quot;font-size: 28px;&quot;&gt;6&lt;/font&gt;" style="ellipse;whiteSpace=wrap;html=1;aspect=fixed;" vertex="1" parent="1">
          <mxGeometry x="-190" y="390" width="80" height="80" as="geometry" />
        </mxCell>
        <mxCell id="pEdZLLj2RjSo5PNS1kJ_-20" style="edgeStyle=orthogonalEdgeStyle;rounded=0;orthogonalLoop=1;jettySize=auto;html=1;exitX=0;exitY=0.5;exitDx=0;exitDy=0;entryX=0.5;entryY=0;entryDx=0;entryDy=0;" edge="1" parent="1" source="pEdZLLj2RjSo5PNS1kJ_-17" target="pEdZLLj2RjSo5PNS1kJ_-19">
          <mxGeometry relative="1" as="geometry" />
        </mxCell>
        <mxCell id="pEdZLLj2RjSo5PNS1kJ_-17" value="&lt;font style=&quot;font-size: 28px;&quot;&gt;7&lt;/font&gt;" style="ellipse;whiteSpace=wrap;html=1;aspect=fixed;" vertex="1" parent="1">
          <mxGeometry x="-270" y="520" width="80" height="80" as="geometry" />
        </mxCell>
        <mxCell id="pEdZLLj2RjSo5PNS1kJ_-22" style="edgeStyle=orthogonalEdgeStyle;rounded=0;orthogonalLoop=1;jettySize=auto;html=1;exitX=0;exitY=0.5;exitDx=0;exitDy=0;entryX=0.5;entryY=0;entryDx=0;entryDy=0;" edge="1" parent="1" source="pEdZLLj2RjSo5PNS1kJ_-19" target="pEdZLLj2RjSo5PNS1kJ_-21">
          <mxGeometry relative="1" as="geometry" />
        </mxCell>
        <mxCell id="pEdZLLj2RjSo5PNS1kJ_-19" value="&lt;font style=&quot;font-size: 28px;&quot;&gt;8&lt;/font&gt;" style="ellipse;whiteSpace=wrap;html=1;aspect=fixed;" vertex="1" parent="1">
          <mxGeometry x="-350" y="640" width="80" height="80" as="geometry" />
        </mxCell>
        <mxCell id="pEdZLLj2RjSo5PNS1kJ_-24" style="edgeStyle=orthogonalEdgeStyle;rounded=0;orthogonalLoop=1;jettySize=auto;html=1;exitX=0;exitY=0.5;exitDx=0;exitDy=0;entryX=0.5;entryY=0;entryDx=0;entryDy=0;" edge="1" parent="1" source="pEdZLLj2RjSo5PNS1kJ_-21" target="pEdZLLj2RjSo5PNS1kJ_-23">
          <mxGeometry relative="1" as="geometry" />
        </mxCell>
        <mxCell id="pEdZLLj2RjSo5PNS1kJ_-21" value="&lt;font style=&quot;font-size: 28px;&quot;&gt;9&lt;/font&gt;" style="ellipse;whiteSpace=wrap;html=1;aspect=fixed;" vertex="1" parent="1">
          <mxGeometry x="-430" y="760" width="80" height="80" as="geometry" />
        </mxCell>
        <mxCell id="pEdZLLj2RjSo5PNS1kJ_-26" style="edgeStyle=orthogonalEdgeStyle;rounded=0;orthogonalLoop=1;jettySize=auto;html=1;exitX=0;exitY=0.5;exitDx=0;exitDy=0;entryX=0.5;entryY=0;entryDx=0;entryDy=0;" edge="1" parent="1" source="pEdZLLj2RjSo5PNS1kJ_-23" target="pEdZLLj2RjSo5PNS1kJ_-25">
          <mxGeometry relative="1" as="geometry" />
        </mxCell>
        <mxCell id="pEdZLLj2RjSo5PNS1kJ_-23" value="&lt;font style=&quot;font-size: 28px;&quot;&gt;10&lt;/font&gt;" style="ellipse;whiteSpace=wrap;html=1;aspect=fixed;" vertex="1" parent="1">
          <mxGeometry x="-490" y="880" width="80" height="80" as="geometry" />
        </mxCell>
        <mxCell id="pEdZLLj2RjSo5PNS1kJ_-27" style="edgeStyle=orthogonalEdgeStyle;rounded=0;orthogonalLoop=1;jettySize=auto;html=1;exitX=0;exitY=0.5;exitDx=0;exitDy=0;" edge="1" parent="1" source="pEdZLLj2RjSo5PNS1kJ_-25" target="pEdZLLj2RjSo5PNS1kJ_-19">
          <mxGeometry relative="1" as="geometry">
            <Array as="points">
              <mxPoint x="-570" y="1040" />
              <mxPoint x="-570" y="680" />
            </Array>
          </mxGeometry>
        </mxCell>
        <mxCell id="pEdZLLj2RjSo5PNS1kJ_-29" style="edgeStyle=orthogonalEdgeStyle;rounded=0;orthogonalLoop=1;jettySize=auto;html=1;exitX=1;exitY=0.5;exitDx=0;exitDy=0;entryX=1;entryY=0.5;entryDx=0;entryDy=0;" edge="1" parent="1" source="pEdZLLj2RjSo5PNS1kJ_-25" target="pEdZLLj2RjSo5PNS1kJ_-28">
          <mxGeometry relative="1" as="geometry" />
        </mxCell>
        <mxCell id="pEdZLLj2RjSo5PNS1kJ_-25" value="&lt;font style=&quot;font-size: 28px;&quot;&gt;11&lt;/font&gt;" style="ellipse;whiteSpace=wrap;html=1;aspect=fixed;" vertex="1" parent="1">
          <mxGeometry x="-550" y="1000" width="80" height="80" as="geometry" />
        </mxCell>
        <mxCell id="pEdZLLj2RjSo5PNS1kJ_-48" style="edgeStyle=orthogonalEdgeStyle;rounded=0;orthogonalLoop=1;jettySize=auto;html=1;exitX=0;exitY=0.5;exitDx=0;exitDy=0;entryX=1;entryY=0.5;entryDx=0;entryDy=0;" edge="1" parent="1" source="pEdZLLj2RjSo5PNS1kJ_-28" target="pEdZLLj2RjSo5PNS1kJ_-47">
          <mxGeometry relative="1" as="geometry" />
        </mxCell>
        <mxCell id="pEdZLLj2RjSo5PNS1kJ_-28" value="&lt;font style=&quot;font-size: 28px;&quot;&gt;12&lt;/font&gt;" style="ellipse;whiteSpace=wrap;html=1;aspect=fixed;" vertex="1" parent="1">
          <mxGeometry x="-620" y="1070" width="80" height="80" as="geometry" />
        </mxCell>
        <mxCell id="pEdZLLj2RjSo5PNS1kJ_-30" value="&lt;font style=&quot;font-size: 20px;&quot;&gt;Control Flow Graph&lt;br&gt;Enrique Zambrano&lt;/font&gt;" style="rounded=0;whiteSpace=wrap;html=1;" vertex="1" parent="1">
          <mxGeometry x="-800" y="10" width="360" height="160" as="geometry" />
        </mxCell>
        <mxCell id="pEdZLLj2RjSo5PNS1kJ_-34" value="&lt;font style=&quot;font-size: 28px;&quot;&gt;Starting Node&lt;/font&gt;" style="shape=singleArrow;whiteSpace=wrap;html=1;arrowWidth=0.8153846153846143;arrowSize=0.41060606060605986;fillColor=#d5e8d4;strokeColor=#82b366;" vertex="1" parent="1">
          <mxGeometry x="-230" y="10" width="220" height="80" as="geometry" />
        </mxCell>
        <mxCell id="pEdZLLj2RjSo5PNS1kJ_-36" value="&lt;font style=&quot;font-size: 28px;&quot;&gt;Loop&lt;/font&gt;" style="shape=singleArrow;whiteSpace=wrap;html=1;arrowWidth=0.8153846153846143;arrowSize=0.41060606060605986;fillColor=#dae8fc;strokeColor=#6c8ebf;" vertex="1" parent="1">
          <mxGeometry x="-770" y="800" width="160" height="80" as="geometry" />
        </mxCell>
        <mxCell id="pEdZLLj2RjSo5PNS1kJ_-37" value="&lt;font style=&quot;font-size: 28px;&quot;&gt;Statements Nodes&lt;/font&gt;" style="shape=singleArrow;whiteSpace=wrap;html=1;arrowWidth=0.8153846153846143;arrowSize=0.41060606060605986;fillColor=#fff2cc;strokeColor=#d6b656;" vertex="1" parent="1">
          <mxGeometry x="-470" y="350" width="200" height="80" as="geometry" />
        </mxCell>
        <mxCell id="pEdZLLj2RjSo5PNS1kJ_-40" value="&lt;font style=&quot;font-size: 28px;&quot;&gt;End Node&lt;/font&gt;" style="shape=singleArrow;direction=west;whiteSpace=wrap;html=1;arrowWidth=0.7583333333333314;arrowSize=0.20625000000000177;fillColor=#f8cecc;strokeColor=#b85450;" vertex="1" parent="1">
          <mxGeometry x="380" y="252" width="160" height="80" as="geometry" />
        </mxCell>
        <mxCell id="pEdZLLj2RjSo5PNS1kJ_-42" value="&lt;font style=&quot;font-size: 28px;&quot;&gt;SNK&lt;/font&gt;" style="ellipse;whiteSpace=wrap;html=1;aspect=fixed;" vertex="1" parent="1">
          <mxGeometry x="260" y="250" width="80" height="80" as="geometry" />
        </mxCell>
        <mxCell id="pEdZLLj2RjSo5PNS1kJ_-45" value="&lt;font style=&quot;font-size: 28px;&quot;&gt;SNK&lt;/font&gt;" style="ellipse;whiteSpace=wrap;html=1;aspect=fixed;" vertex="1" parent="1">
          <mxGeometry x="74" y="380" width="80" height="80" as="geometry" />
        </mxCell>
        <mxCell id="pEdZLLj2RjSo5PNS1kJ_-47" value="&lt;font style=&quot;font-size: 28px;&quot;&gt;SNK&lt;/font&gt;" style="ellipse;whiteSpace=wrap;html=1;aspect=fixed;" vertex="1" parent="1">
          <mxGeometry x="-740" y="1070" width="80" height="80" as="geometry" />
        </mxCell>
      </root>
    </mxGraphModel>
  </diagram>
</mxfile>
